<svg xmlns="http://www.w3.org/2000/svg" viewBox="0 0 64 64" width="64" height="64">
  <rect width="64" height="64" rx="12" fill="#0D1B2A"/>
  <g transform="translate(8 8) scale(0.28)" fill="#FFFFFF">
    <path d="M18.58 117.06H42.01l8.69-17.1s48.08-8.21 76.15-35.68c25.31-24.78 15.89-39.86 15.62-40.67-.27-.81-6.47-14.81-28.28-13.47 0 0 40.01 10.43 5.39 43.36-4.95 4.71-10.87 9.08-17.41 13.02-34.58 20.89-86.32 29.94-102.17 14.99 0 0 1.48 16.97 26.53 20.2l-7.95 15.35Z"/>
    <path d="M113.65 105.7h22.76l-11.38-32.06s-7.22 7.27-17.57 11.78l6.19 20.28Z"/>
    <path d="M90.22 26.21 61.44 76.91s-14.71 4.28-25.46 5.06L80.17 0h22.62l16.79 56.2s-9.21 8.45-17.4 13.02L90.23 26.21h-.01Z"/>
    <path d="M67.23 13.11 72.19 3.42S40.3 9.34 23.06 33.22C5.83 57.11 10.49 81.69 16.6 86.37c0 0-4.66-31.06 14.9-50.99 19.56-19.93 35.73-22.26 35.73-22.26v-.01Z"/>
  </g>
</svg>
