<svg xmlns="http://www.w3.org/2000/svg" viewBox="0 0 1200 630" width="1200" height="630">
  <defs>
    <linearGradient id="bg" x1="0" y1="0" x2="1" y2="1">
      <stop offset="0%" stop-color="#0D1B2A"/>
      <stop offset="100%" stop-color="#142236"/>
    </linearGradient>
    <linearGradient id="accent" x1="0" y1="0" x2="1" y2="0">
      <stop offset="0%" stop-color="#1C6EE8" stop-opacity="0"/>
      <stop offset="50%" stop-color="#4A8FF5"/>
      <stop offset="100%" stop-color="#1C6EE8" stop-opacity="0"/>
    </linearGradient>
  </defs>

  <rect width="1200" height="630" fill="url(#bg)"/>
  <rect x="0" y="0" width="1200" height="2" fill="url(#accent)" opacity="0.55"/>

  <g transform="translate(96 110) scale(0.9)" fill="#FFFFFF">
    <path d="M84.77 212.6 80.55 159.64h-.55l-18.3 52.43H49.57L31.27 159.64h-.55L26.5 212.6H6.13l8.01-89.36h21.66l19.82 51.56 19.82-51.56h21.66l8.01 89.36H84.76Z"/>
    <path d="M113.8 167.87c0-12.92 4.41-23.86 13.22-32.82 8.81-8.96 19.43-13.43 31.85-13.43s23.11 4.46 31.85 13.38c8.74 8.92 13.1 19.88 13.1 32.88 0 13-4.3 24.07-12.89 32.99-8.59 8.92-19.28 13.38-32.07 13.38s-23.84-4.43-32.33-13.27c-8.49-8.84-12.73-19.88-12.73-33.1Zm21.99 0c0 4.69.72 8.97 2.16 12.84 1.44 3.86 3.97 7.13 7.59 9.8 3.61 2.67 8.05 4.01 13.32 4.01 7.58 0 13.31-2.6 17.17-7.8 3.86-5.2 5.8-11.48 5.8-18.85 0-7.36-1.97-13.55-5.91-18.79-3.94-5.24-9.62-7.85-17.06-7.85s-13.05 2.62-17.06 7.85c-4.01 5.24-6.01 11.5-6.01 18.79Z"/>
    <path d="M208.14 141.12v-17.88h62.83v17.88h-21.23v71.49h-20.36v-71.49h-21.23Z"/>
    <path d="M303.13 123.24v89.36h-20.36v-89.36h20.36Z"/>
    <path d="M316.56 167.87c0-12.92 4.41-23.86 13.21-32.82 8.81-8.96 19.43-13.43 31.85-13.43s23.11 4.46 31.85 13.38c8.74 8.92 13.1 19.88 13.1 32.88 0 13-4.29 24.07-12.89 32.99-8.59 8.92-19.28 13.38-32.07 13.38s-23.85-4.43-32.34-13.27c-8.49-8.84-12.72-19.88-12.72-33.1Zm21.99 0c0 4.69.72 8.97 2.16 12.84 1.44 3.86 3.97 7.13 7.58 9.8 3.61 2.67 8.05 4.01 13.32 4.01 7.58 0 13.31-2.6 17.17-7.8 3.86-5.2 5.8-11.48 5.8-18.85 0-7.36-1.97-13.55-5.9-18.79-3.94-5.24-9.62-7.85-17.07-7.85s-13.05 2.62-17.06 7.85c-4.01 5.24-6.01 11.5-6.01 18.79Z"/>
    <path d="M440.37 157.15v55.46h-20.36v-89.36h20.36l35.53 55.46h.22v-55.46h20.36v89.36h-20.36l-35.53-55.46h-.22Z"/>
  </g>

  <g transform="translate(96 280) scale(0.9)" fill="#0091FF">
    <path d="M23.09 227.26 38.26 264.84h-9.2l-2.78-7.52H11.97l-2.78 7.52H0l15.17-37.58h7.93Zm.28 22.55-4.19-10.93h-.09l-4.19 10.93h8.47Z"/>
    <path d="M88.05 227.26v24.24c0 4.62-1.25 8.11-3.74 10.47-2.49 2.37-6.13 3.55-10.93 3.55s-8.44-1.18-10.93-3.55c-2.49-2.36-3.74-5.85-3.74-10.47v-24.24h8.57v21.73c0 3.03.48 5.15 1.43 6.33.95 1.18 2.51 1.77 4.67 1.77s3.71-.59 4.68-1.77c.95-1.18 1.43-3.29 1.43-6.33v-21.73h8.57Z"/>
    <path d="M107.95 234.77v-7.52h26.42v7.52h-8.93v30.06h-8.57v-30.06h-8.93Z"/>
    <path d="M153.77 246.03c0-5.44 1.85-10.04 5.56-13.81 3.7-3.77 8.16-5.65 13.39-5.65s9.72 1.88 13.39 5.63c3.67 3.75 5.51 8.36 5.51 13.82s-1.8 10.12-5.42 13.87c-3.61 3.75-8.11 5.63-13.49 5.63s-10.02-1.86-13.59-5.58c-3.57-3.72-5.35-8.36-5.35-13.92Zm9.24 0c0 1.97.31 3.78.92 5.4.61 1.62 1.67 2.99 3.18 4.12 1.52 1.13 3.39 1.69 5.6 1.69 3.19 0 5.6-1.1 7.22-3.28 1.62-2.18 2.44-4.83 2.44-7.93s-.83-5.7-2.48-7.91c-1.66-2.2-4.04-3.3-7.17-3.3s-5.48 1.11-7.17 3.3c-1.69 2.2-2.53 4.83-2.53 7.91h-.01Z"/>
    <path d="M245.92 264.84 244.15 242.56h-.23L236.22 264.61h-5.1l-7.7-22.04h-.23L221.42 264.84h-8.57l3.37-37.58h9.11l8.34 21.68 8.34-21.68h9.11l3.37 37.58h-8.57Z"/>
    <path d="M296.48 227.26 311.65 264.84h-9.2l-2.78-7.52H285.36l-2.78 7.52h-9.2L288.55 227.26h7.93Zm.28 22.55-4.19-10.93h-.1l-4.19 10.93h8.47Z"/>
    <path d="M328 234.77v-7.52H354.42v7.52h-8.93v30.06h-8.57v-30.06h-8.93Z"/>
    <path d="M385.53 227.26V264.84H376.96V227.26h8.57Z"/>
    <path d="M408.76 246.03c0-5.44 1.85-10.04 5.56-13.81 3.7-3.77 8.17-5.65 13.39-5.65s9.72 1.88 13.39 5.63c3.67 3.75 5.51 8.36 5.51 13.82s-1.8 10.12-5.42 13.87c-3.61 3.75-8.11 5.63-13.49 5.63s-10.02-1.86-13.59-5.58c-3.57-3.72-5.35-8.36-5.35-13.92Zm9.24 0c0 1.97.31 3.78.92 5.4.61 1.62 1.67 2.99 3.18 4.12 1.52 1.13 3.39 1.69 5.6 1.69 3.19 0 5.6-1.1 7.22-3.28 1.62-2.18 2.44-4.83 2.44-7.93s-.83-5.7-2.48-7.91c-1.66-2.2-4.04-3.3-7.17-3.3s-5.48 1.11-7.17 3.3c-1.69 2.2-2.53 4.83-2.53 7.91h-.01Z"/>
    <path d="M478.4 241.51v23.32H469.84V227.26H478.4l14.94 23.32H493.43V227.26h8.57V264.84H493.43L478.49 241.51H478.4Z"/>
  </g>

  <text x="96" y="490" font-family="'Manrope', system-ui, sans-serif" font-size="44" font-weight="700" fill="#FFFFFF" letter-spacing="-1">
    Automação inteligente,
  </text>
  <text x="96" y="540" font-family="'Manrope', system-ui, sans-serif" font-size="44" font-weight="700" fill="#1C6EE8" letter-spacing="-1">
    resultado real.
  </text>

  <text x="96" y="588" font-family="'DM Mono', ui-monospace, monospace" font-size="14" font-weight="500" fill="rgba(255,255,255,0.45)" letter-spacing="2">
    AUTOMAÇÃO INDUSTRIAL · INTEGRAÇÃO DE SISTEMAS
  </text>

  <circle cx="1080" cy="555" r="6" fill="#1C6EE8" opacity="0.9"/>
  <circle cx="1080" cy="555" r="14" fill="none" stroke="#1C6EE8" stroke-width="1" opacity="0.4"/>
</svg>
