<svg width="502" height="266" viewBox="0 0 502 266" fill="none" xmlns="http://www.w3.org/2000/svg">
<g clip-path="url(#clip0_470_2881)">
<path d="M84.7747 212.604L80.5493 159.639H80.0057L61.7021 212.07H49.5696L31.266 159.639H30.7223L26.4969 212.604H6.13306L14.1451 123.241H35.8061L55.6263 174.804L75.4465 123.241H97.1075L105.119 212.604H84.7556H84.7747Z" fill="white"/>
<path d="M113.799 167.87C113.799 154.946 118.206 144.006 127.019 135.05C135.832 126.093 146.448 121.62 158.867 121.62C171.285 121.62 181.978 126.084 190.715 135.002C199.451 143.92 203.82 154.879 203.82 167.88C203.82 180.88 199.518 191.945 190.934 200.863C182.34 209.781 171.657 214.245 158.867 214.245C146.076 214.245 135.022 209.819 126.533 200.977C118.044 192.135 113.809 181.1 113.809 167.88L113.799 167.87ZM135.785 167.87C135.785 172.563 136.51 176.846 137.95 180.709C139.39 184.572 141.918 187.843 145.533 190.514C149.148 193.185 153.583 194.52 158.857 194.52C166.44 194.52 172.163 191.916 176.026 186.718C179.889 181.519 181.825 175.234 181.825 167.87C181.825 160.507 179.86 154.317 175.921 149.08C171.982 143.844 166.297 141.23 158.857 141.23C151.418 141.23 145.809 143.853 141.794 149.08C137.788 154.317 135.785 160.583 135.785 167.87Z" fill="white"/>
<path d="M208.141 141.116V123.241H270.968V141.116H249.736V212.604H229.372V141.116H208.141Z" fill="white"/>
<path d="M303.13 123.241V212.604H282.767V123.241H303.13Z" fill="white"/>
<path d="M316.56 167.87C316.56 154.946 320.967 144.006 329.77 135.05C338.584 126.093 349.2 121.62 361.618 121.62C374.037 121.62 384.729 126.084 393.466 135.002C402.203 143.92 406.571 154.879 406.571 167.88C406.571 180.88 402.279 191.945 393.685 200.863C385.092 209.781 374.409 214.245 361.618 214.245C348.828 214.245 337.773 209.819 329.284 200.977C320.795 192.135 316.56 181.1 316.56 167.88V167.87ZM338.546 167.87C338.546 172.563 339.27 176.846 340.711 180.709C342.151 184.572 344.679 187.843 348.294 190.514C351.899 193.185 356.344 194.52 361.618 194.52C369.201 194.52 374.924 191.916 378.787 186.718C382.65 181.519 384.586 175.234 384.586 167.87C384.586 160.507 382.621 154.317 378.682 149.08C374.743 143.844 369.058 141.23 361.618 141.23C354.179 141.23 348.561 143.853 344.555 149.08C340.549 154.317 338.546 160.583 338.546 167.87Z" fill="white"/>
<path d="M440.365 157.15V212.614H420.001V123.252H440.365L475.894 178.716H476.114V123.252H496.477V212.614H476.114L440.584 157.15H440.365Z" fill="white"/>
<path d="M237.613 100.179H211.279L190.142 69.7236L169.006 100.179H143.749L177.561 52.059L149.386 10.7686H173.66L190.133 35.1575L206.605 10.7686H231.967L202.704 52.059L237.604 100.179H237.613Z" fill="white"/>
<path d="M291.58 10.7686V28.6525H260.8V46.422H290.283V64.3059H260.8V82.2948H291.58V100.179H240.427V10.7686H291.58Z" fill="white"/>
<path d="M23.0918 227.255L38.2573 264.835H29.0531L26.2775 257.319H11.9703L9.19473 264.835H0L15.1656 227.255H23.0918ZM23.3684 249.803L19.1811 238.872H19.0858L14.8985 249.803H23.3684Z" fill="#0091FF"/>
<path d="M88.0464 227.255V251.491C88.0464 256.108 86.7969 259.599 84.3074 261.964C81.818 264.329 78.1744 265.522 73.3768 265.522C68.5791 265.522 64.9355 264.339 62.4461 261.964C59.9566 259.599 58.7072 256.108 58.7072 251.491V227.255H67.2724V248.983C67.2724 252.016 67.7493 254.133 68.7031 255.316C69.6569 256.499 71.2116 257.09 73.3768 257.09C75.5419 257.09 77.0871 256.499 78.0504 255.316C79.0042 254.133 79.4811 252.025 79.4811 248.983V227.255H88.0464Z" fill="#0091FF"/>
<path d="M107.952 234.771V227.255H134.373V234.771H125.445V264.835H116.88V234.771H107.952Z" fill="#0091FF"/>
<path d="M153.773 246.026C153.773 240.59 155.624 235.992 159.334 232.225C163.035 228.457 167.499 226.578 172.725 226.578C177.952 226.578 182.445 228.457 186.117 232.206C189.789 235.954 191.63 240.561 191.63 246.026C191.63 251.492 189.827 256.146 186.212 259.895C182.597 263.643 178.105 265.522 172.725 265.522C167.346 265.522 162.701 263.662 159.134 259.942C155.566 256.223 153.783 251.587 153.783 246.026H153.773ZM163.016 246.026C163.016 248.001 163.321 249.803 163.931 251.425C164.542 253.046 165.601 254.42 167.117 255.545C168.634 256.671 170.503 257.234 172.716 257.234C175.902 257.234 178.315 256.137 179.936 253.952C181.558 251.768 182.378 249.126 182.378 246.026C182.378 242.926 181.548 240.323 179.898 238.119C178.238 235.916 175.854 234.819 172.725 234.819C169.597 234.819 167.241 235.925 165.553 238.119C163.865 240.323 163.025 242.955 163.025 246.026H163.016Z" fill="#0091FF"/>
<path d="M245.921 264.835L244.147 242.564H243.918L236.221 264.606H231.118L223.421 242.564H223.192L221.418 264.835H212.852L216.219 227.255H225.328L233.664 248.935L242.001 227.255H251.11L254.477 264.835H245.911H245.921Z" fill="#0091FF"/>
<path d="M296.483 227.255L311.648 264.835H302.444L299.668 257.319H285.361L282.585 264.835H273.381L288.547 227.255H296.473H296.483ZM296.759 249.803L292.572 238.872H292.477L288.289 249.803H296.759Z" fill="#0091FF"/>
<path d="M327.996 234.771V227.255H354.417V234.771H345.489V264.835H336.924V234.771H327.996Z" fill="#0091FF"/>
<path d="M385.53 227.255V264.835H376.965V227.255H385.53Z" fill="#0091FF"/>
<path d="M408.756 246.026C408.756 240.59 410.606 235.992 414.316 232.225C418.017 228.457 422.481 226.578 427.708 226.578C432.935 226.578 437.427 228.457 441.099 232.206C444.771 235.954 446.612 240.561 446.612 246.026C446.612 251.492 444.81 256.146 441.195 259.895C437.58 263.643 433.087 265.522 427.708 265.522C422.328 265.522 417.683 263.662 414.116 259.942C410.549 256.223 408.765 251.587 408.765 246.026H408.756ZM417.998 246.026C417.998 248.001 418.303 249.803 418.914 251.425C419.524 253.046 420.583 254.42 422.099 255.545C423.616 256.671 425.485 257.234 427.698 257.234C430.884 257.234 433.297 256.137 434.919 253.952C436.54 251.768 437.351 249.126 437.351 246.026C437.351 242.926 436.521 240.323 434.871 238.119C433.211 235.916 430.827 234.819 427.698 234.819C424.57 234.819 422.214 235.925 420.526 238.119C418.837 240.323 417.998 242.955 417.998 246.026Z" fill="#0091FF"/>
<path d="M478.402 241.514V264.835H469.837V227.255H478.402L493.339 250.576H493.425V227.255H501.99V264.835H493.425L478.488 241.514H478.393H478.402Z" fill="#0091FF"/>
<path d="M18.5802 117.061H42.0058L50.695 99.9591C50.695 99.9591 98.7766 91.7468 126.847 64.2771C152.161 39.4971 142.738 24.4173 142.471 23.6066C142.204 22.7959 136.004 8.79393 114.19 10.1388C114.19 10.1388 154.203 20.5735 119.579 53.499C114.629 58.2109 108.706 62.5793 102.172 66.5185C67.587 87.407 15.8523 96.4587 0 81.5124C0 81.5124 1.47841 98.4807 26.5255 101.714L18.5802 117.061Z" fill="white"/>
<path d="M113.646 105.701H136.404L125.025 73.6436C125.025 73.6436 117.805 80.9116 107.456 85.4231L113.646 105.701Z" fill="white"/>
<path d="M90.221 26.2107L61.435 76.9057C61.435 76.9057 46.7272 81.1884 35.9778 81.9705L80.1678 0H102.792L119.579 56.1985C119.579 56.1985 110.365 64.6493 102.172 69.218L90.2305 26.2107H90.221Z" fill="white"/>
<path d="M67.2342 13.1058L72.194 3.41504C72.194 3.41504 40.2986 9.3382 23.0632 33.2216C5.82788 57.105 10.492 81.6943 16.5964 86.3679C16.5964 86.3679 11.9323 55.3119 31.4949 35.3772C51.0576 15.4426 67.2247 13.1153 67.2247 13.1153L67.2342 13.1058Z" fill="white"/>
</g>
<defs>
<clipPath id="clip0_470_2881">
<rect width="502" height="265.522" fill="white"/>
</clipPath>
</defs>
</svg>
