<svg width="806" height="117" viewBox="0 0 806 117" fill="none" xmlns="http://www.w3.org/2000/svg">
<g clip-path="url(#clip0_483_329)">
<path d="M237.613 100.179H211.279L190.142 69.7236L169.006 100.179H143.749L177.561 52.059L149.386 10.7686H173.66L190.133 35.1575L206.605 10.7686H231.967L202.704 52.059L237.604 100.179H237.613Z" fill="#1A6EE8"/>
<path d="M291.58 10.7686V28.6525H260.8V46.422H290.283V64.3059H260.8V82.2948H291.58V100.179H240.427V10.7686H291.58Z" fill="#1A6EE8"/>
<path d="M18.5802 117.061H42.0058L50.695 99.9591C50.695 99.9591 98.7766 91.7468 126.847 64.2771C152.161 39.4971 142.738 24.4173 142.471 23.6066C142.204 22.7959 136.004 8.79393 114.19 10.1388C114.19 10.1388 154.203 20.5735 119.579 53.499C114.629 58.2109 108.706 62.5793 102.172 66.5185C67.587 87.407 15.8523 96.4587 0 81.5124C0 81.5124 1.47841 98.4807 26.5255 101.714L18.5802 117.061Z" fill="#1A6EE8"/>
<path d="M113.646 105.701H136.404L125.025 73.6436C125.025 73.6436 117.805 80.9116 107.456 85.4231L113.646 105.701Z" fill="#1A6EE8"/>
<path d="M90.221 26.2107L61.435 76.9057C61.435 76.9057 46.7272 81.1884 35.9778 81.9705L80.1678 0H102.792L119.579 56.1985C119.579 56.1985 110.365 64.6493 102.172 69.218L90.2305 26.2107H90.221Z" fill="#1A6EE8"/>
<path d="M67.2342 13.1058L72.194 3.41504C72.194 3.41504 40.2986 9.3382 23.0632 33.2216C5.82788 57.105 10.492 81.6943 16.5964 86.3679C16.5964 86.3679 11.9323 55.3119 31.4949 35.3772C51.0576 15.4426 67.2247 13.1153 67.2247 13.1153L67.2342 13.1058Z" fill="#1A6EE8"/>
</g>
<path d="M383.642 99.9836L379.416 47.0185H378.873L360.569 99.4495H348.437L330.133 47.0185H329.589L325.364 99.9836H305L313.012 10.6211H334.673L354.493 62.1841L374.313 10.6211H395.974L403.986 99.9836H383.623H383.642Z" fill="#1A6EE8"/>
<path d="M412.666 55.2503C412.666 42.3261 417.073 31.3859 425.886 22.4296C434.699 13.4734 445.315 9 457.734 9C470.152 9 480.845 13.4638 489.582 22.382C498.318 31.3001 502.687 42.2594 502.687 55.2598C502.687 68.2602 498.385 79.3244 489.801 88.2426C481.207 97.1607 470.524 101.625 457.734 101.625C444.943 101.625 433.889 97.1989 425.4 88.357C416.911 79.5152 412.676 68.4796 412.676 55.2598L412.666 55.2503ZM434.652 55.2503C434.652 59.943 435.376 64.2256 436.817 68.0886C438.257 71.9515 440.785 75.2231 444.4 77.8937C448.014 80.5644 452.45 81.8997 457.724 81.8997C465.307 81.8997 471.03 79.2958 474.893 74.0976C478.756 68.8993 480.692 62.6137 480.692 55.2503C480.692 47.8869 478.727 41.6966 474.788 36.4602C470.849 31.2238 465.164 28.6103 457.724 28.6103C450.285 28.6103 444.676 31.2333 440.661 36.4602C436.655 41.6966 434.652 47.9632 434.652 55.2503Z" fill="#1A6EE8"/>
<path d="M507.008 28.4955V10.6211H569.835V28.4955H548.603V99.9836H528.239V28.4955H507.008Z" fill="#1A6EE8"/>
<path d="M601.997 10.6211V99.9836H581.634V10.6211H601.997Z" fill="#1A6EE8"/>
<path d="M615.427 55.2503C615.427 42.3261 619.834 31.3859 628.637 22.4296C637.451 13.4734 648.067 9 660.485 9C672.904 9 683.596 13.4638 692.333 22.382C701.07 31.3001 705.438 42.2594 705.438 55.2598C705.438 68.2602 701.146 79.3244 692.552 88.2426C683.959 97.1607 673.276 101.625 660.485 101.625C647.695 101.625 636.64 97.1989 628.151 88.357C619.662 79.5152 615.427 68.4796 615.427 55.2598V55.2503ZM637.413 55.2503C637.413 59.943 638.137 64.2256 639.578 68.0886C641.018 71.9515 643.546 75.2231 647.161 77.8937C650.766 80.5644 655.211 81.8997 660.485 81.8997C668.068 81.8997 673.791 79.2958 677.654 74.0976C681.517 68.8993 683.453 62.6137 683.453 55.2503C683.453 47.8869 681.488 41.6966 677.549 36.4602C673.61 31.2238 667.925 28.6103 660.485 28.6103C653.046 28.6103 647.428 31.2333 643.422 36.4602C639.416 41.6966 637.413 47.9632 637.413 55.2503Z" fill="#1A6EE8"/>
<path d="M739.232 44.5303V99.9944H718.868V10.6318H739.232L774.761 66.0959H774.98V10.6318H795.344V99.9944H774.98L739.451 44.5303H739.232Z" fill="#1A6EE8"/>
<defs>
<clipPath id="clip0_483_329">
<rect width="806" height="117" fill="white"/>
</clipPath>
</defs>
</svg>
